<svg width="20" height="24" viewBox="0 0 20 24" fill="none" xmlns="http://www.w3.org/2000/svg">
<path d="M8.41699 11.9282C8.41699 12.9632 9.15637 13.8021 10.0685 13.8021C10.9806 13.8021 11.72 12.9632 11.72 11.9282C11.72 10.8933 10.9806 10.0543 10.0685 10.0543C9.15637 10.0543 8.41699 10.8933 8.41699 11.9282Z" fill="white"/>
<path d="M8.41699 6.30653C8.41699 7.34146 9.15637 8.18044 10.0685 8.18044C10.9806 8.18044 11.72 7.34146 11.72 6.30653C11.72 5.2716 10.9806 4.43262 10.0685 4.43262C9.15637 4.43262 8.41699 5.2716 8.41699 6.30653Z" fill="white"/>
<path d="M8.41699 17.5501C8.41699 18.585 9.15637 19.424 10.0685 19.424C10.9806 19.424 11.72 18.585 11.72 17.5501C11.72 16.5151 10.9806 15.6761 10.0685 15.6761C9.15637 15.6761 8.41699 16.5151 8.41699 17.5501Z" fill="white"/>
</svg>
