<svg width="64" height="48" viewBox="0 0 64 48" fill="none" xmlns="http://www.w3.org/2000/svg">
<path d="M59.6178 47.9985H49.2435V4.5647L54.0074 1.07116C54.9564 0.375224 56.1026 0 57.2794 0H57.6813C61.0426 0 63.7676 2.72492 63.7676 6.08627V43.8488C63.7676 46.1406 61.9097 47.9985 59.6178 47.9985Z" fill="#E94335"/>
<path d="M31.8146 17.5672L14.524 4.5647V23.3768L31.8146 36.241L49.2434 23.3768V4.5647L31.8146 17.5672Z" fill="#E94335"/>
<path d="M4.14973 47.9985H14.5241V4.5647L9.76013 1.07116C8.81113 0.375224 7.66495 0 6.48813 0H6.08627C2.72492 0 0 2.72492 0 6.08627V43.8488C0 46.1406 1.8579 47.9985 4.14973 47.9985Z" fill="#E94335"/>
<path fill-rule="evenodd" clip-rule="evenodd" d="M14.5241 23.3768L1.91927e-05 12.3109L0 12.3107V6.08627C0 2.72492 2.72492 0 6.08627 0H6.48813C7.66495 0 8.81113 0.375224 9.76013 1.07116L14.5241 4.5647V23.3768Z" fill="#C6221E"/>
<path fill-rule="evenodd" clip-rule="evenodd" d="M49.2435 23.3768L63.7675 12.3109L63.7676 12.3105V6.08627C63.7676 2.72492 61.0426 0 57.6813 0H57.2794C56.1026 0 54.9564 0.375224 54.0074 1.07116L49.2435 4.5647V23.3768Z" fill="#C6221E"/>
</svg>
