<svg width="18" height="20" viewBox="0 0 18 20" fill="none" xmlns="http://www.w3.org/2000/svg">
<path d="M11.2581 8.70282C11.5061 8.98429 11.9083 8.98429 12.1563 8.70282C12.4044 8.42135 12.4044 7.96503 12.1563 7.68357L11.2581 8.70282ZM9.16643 5.31027L9.61555 4.80063C9.36749 4.51917 8.96537 4.51917 8.7173 4.80063L9.16643 5.31027ZM6.17651 7.68357C5.92846 7.96503 5.92846 8.42135 6.17651 8.70282C6.42457 8.98429 6.82675 8.98429 7.07481 8.70282L6.17651 7.68357ZM7.07481 11.5275C6.82675 11.2461 6.42457 11.2461 6.17651 11.5275C5.92846 11.809 5.92846 12.2653 6.17651 12.5467L7.07481 11.5275ZM9.16643 14.9201L8.7173 15.4297C8.96537 15.7112 9.36749 15.7112 9.61555 15.4297L9.16643 14.9201ZM12.1563 12.5467C12.4044 12.2653 12.4044 11.809 12.1563 11.5275C11.9083 11.2461 11.5061 11.2461 11.2581 11.5275L12.1563 12.5467ZM12.1563 7.68357L9.61555 4.80063L8.7173 5.8199L11.2581 8.70282L12.1563 7.68357ZM8.7173 4.80063L6.17651 7.68357L7.07481 8.70282L9.61555 5.8199L8.7173 4.80063ZM6.17651 12.5467L8.7173 15.4297L9.61555 14.4105L7.07481 11.5275L6.17651 12.5467ZM9.61555 15.4297L12.1563 12.5467L11.2581 11.5275L8.7173 14.4105L9.61555 15.4297ZM16.1535 10.1152C16.1535 14.4937 13.0253 18.0433 9.16643 18.0433V19.4847C13.7269 19.4847 17.4239 15.2899 17.4239 10.1152H16.1535ZM9.16643 18.0433C5.30755 18.0433 2.17932 14.4937 2.17932 10.1152H0.908936C0.908936 15.2899 4.60594 19.4847 9.16643 19.4847V18.0433ZM2.17932 10.1152C2.17932 5.7366 5.30755 2.18708 9.16643 2.18708V0.745605C4.60594 0.745605 0.908936 4.9405 0.908936 10.1152H2.17932ZM9.16643 2.18708C13.0253 2.18708 16.1535 5.7366 16.1535 10.1152H17.4239C17.4239 4.9405 13.7269 0.745605 9.16643 0.745605V2.18708Z" fill="white"/>
</svg>
