<svg width="17" height="19" viewBox="0 0 17 19" fill="none" xmlns="http://www.w3.org/2000/svg">
<path d="M4.54162 7.44842C4.54162 7.06033 4.26434 6.74571 3.92231 6.74571C3.58027 6.74571 3.303 7.06033 3.303 7.44842H4.54162ZM3.92231 10.2593H3.303C3.303 10.6474 3.58027 10.962 3.92231 10.962V10.2593ZM6.39956 10.962C6.74158 10.962 7.01887 10.6474 7.01887 10.2593C7.01887 9.87121 6.74158 9.55658 6.39956 9.55658V10.962ZM11.6079 10.5289C11.7391 10.8872 12.1015 11.0571 12.4174 10.9082C12.7332 10.7593 12.8829 10.3481 12.7517 9.98973L11.6079 10.5289ZM5.18885 8.83615L5.62462 9.33545C5.63073 9.32862 5.6367 9.32159 5.64256 9.31447L5.18885 8.83615ZM3.303 7.44842V10.2593H4.54162V7.44842H3.303ZM3.92231 10.962H6.39956V9.55658H3.92231V10.962ZM12.7517 9.98973C12.3051 8.76953 11.5459 7.957 10.6452 7.34795L10.0111 8.55525C10.7489 9.05418 11.2894 9.6587 11.6079 10.5289L12.7517 9.98973ZM10.6452 7.34795C9.70503 6.71215 8.61628 6.46462 7.54487 6.64902L7.73058 8.03852C8.51306 7.90388 9.31272 8.08293 10.0111 8.55525L10.6452 7.34795ZM7.54487 6.64902C6.47396 6.83335 5.48895 7.43723 4.73513 8.35783L5.64256 9.31447C6.21368 8.617 6.94761 8.17335 7.73058 8.03852L7.54487 6.64902ZM4.75307 8.33685L3.48653 9.75999L4.35809 10.7586L5.62462 9.33545L4.75307 8.33685ZM14.8635 9.32234C14.8635 13.5914 11.8134 17.0522 8.05105 17.0522V18.4577C12.4975 18.4577 16.1021 14.3677 16.1021 9.32234H14.8635ZM8.05105 17.0522C4.28865 17.0522 1.23862 13.5914 1.23862 9.32234H0C0 14.3677 3.60458 18.4577 8.05105 18.4577V17.0522ZM1.23862 9.32234C1.23862 5.05324 4.28865 1.59245 8.05105 1.59245V0.187012C3.60458 0.187012 0 4.27703 0 9.32234H1.23862ZM8.05105 1.59245C11.8134 1.59245 14.8635 5.05324 14.8635 9.32234H16.1021C16.1021 4.27703 12.4975 0.187012 8.05105 0.187012V1.59245Z" fill="white"/>
</svg>
